<svg viewBox="0 0 139 139" fill="none" xmlns="http://www.w3.org/2000/svg">
<path fill-rule="evenodd" clip-rule="evenodd" d="M114.316 40.5693L122.448 29.8174C122.448 29.8174 123.537 25.249 118.29 20.0029C113.044 14.7559 107.401 14.7695 107.401 14.7695L96.1555 23.6846C91.7432 21.208 86.9365 19.3506 81.8538 18.2305L79.8799 4C79.8799 4 77.4199 0 70 0C62.5801 0 58.6001 4 58.6001 4L56.8916 18.7812C51.7893 20.1465 46.9934 22.2617 42.6292 25.001L30.5242 15.8447C30.5242 15.8447 25.9563 14.7559 20.7097 20.0029C15.4629 25.249 15.4771 30.8916 15.4771 30.8916L25.1296 43.0674C22.8411 46.9873 21.0457 51.2305 19.8291 55.7119L3.5 57.5996C3.5 57.5996 0 61.5801 0 69C0 76.4199 3.5 81.1602 3.5 81.1602L19.7114 82.8467C20.8306 87.1172 22.4741 91.1748 24.5691 94.9482L14.4163 107.755C14.4163 107.755 14.7559 113.044 20.0024 118.29C25.2493 123.537 31.0759 124.414 31.0759 124.414L43.3564 114.447C47.5071 116.959 52.0337 118.913 56.8318 120.203L58.6001 135.5C58.6001 135.5 62.5801 139 70 139C77.4199 139 82.1599 135.5 82.1599 135.5L83.7395 120.316C88.4607 119.09 92.9236 117.223 97.0298 114.813L108.462 123.877C108.462 123.877 113.751 123.537 118.998 118.29C124.244 113.044 125.121 107.217 125.121 107.217L115.909 95.8662C118.613 91.2197 120.624 86.1211 121.8 80.7109L135 78.8799C135 78.8799 139 76.4199 139 69C139 61.5801 135 57.5996 135 57.5996L121.251 56.0107C119.776 50.4473 117.41 45.2461 114.316 40.5693ZM70.5 104C89.5537 104 105 88.5537 105 69.5C105 50.4463 89.5537 35 70.5 35C51.4463 35 36 50.4463 36 69.5C36 88.5537 51.4463 104 70.5 104Z" fill="currentColor"/>
</svg>
