<svg viewBox="0 0 60 60" fill="none" xmlns="http://www.w3.org/2000/svg">
<path fill-rule="evenodd" clip-rule="evenodd" d="M49.3451 17.5119L52.8554 12.8708C52.8554 12.8708 53.3254 10.8989 51.0606 8.63436C48.7958 6.36944 46.3601 6.37534 46.3601 6.37534L41.506 10.2236C39.6014 9.15454 37.5266 8.35277 35.3326 7.86927L34.4805 1.72662C34.4805 1.72662 33.4187 0 30.2158 0C27.013 0 25.295 1.72662 25.295 1.72662L24.5575 8.10701C22.3551 8.69632 20.2849 9.60938 18.4011 10.7918L13.1759 6.83945C13.1759 6.83945 11.2042 6.36944 8.93945 8.63436C6.67463 10.8989 6.68074 13.3345 6.68074 13.3345L10.8473 18.5902C9.85945 20.2823 9.08446 22.1139 8.55933 24.0483L1.51079 24.8631C1.51079 24.8631 0 26.5813 0 29.7842C0 32.987 1.51079 35.0332 1.51079 35.0332L8.50853 35.7612C8.99161 37.6045 9.70106 39.356 10.6054 40.9849L6.22285 46.5129C6.22285 46.5129 6.36944 48.796 8.63415 51.0605C10.899 53.3254 13.4141 53.7039 13.4141 53.7039L18.715 49.4017C20.5067 50.4859 22.4606 51.3294 24.5317 51.8862L25.295 58.4892C25.295 58.4892 27.013 60 30.2158 60C33.4187 60 35.4647 58.4892 35.4647 58.4892L36.1465 51.9351C38.1845 51.4057 40.1109 50.5997 41.8834 49.5598L46.818 53.4721C46.818 53.4721 49.101 53.3254 51.3659 51.0605C53.6306 48.796 54.0091 46.2806 54.0091 46.2806L50.0327 41.3811C51.1998 39.3754 52.0677 37.1746 52.5757 34.8393L58.2734 34.0489C58.2734 34.0489 60 32.987 60 29.7842C60 26.5813 58.2734 24.8631 58.2734 24.8631L52.3385 24.1773C51.7018 21.7758 50.6808 19.5307 49.3451 17.5119ZM30.4317 44.8921C38.6563 44.8921 45.3237 38.2246 45.3237 30C45.3237 21.7754 38.6563 15.1079 30.4317 15.1079C22.207 15.1079 15.5396 21.7754 15.5396 30C15.5396 38.2246 22.207 44.8921 30.4317 44.8921Z" fill="white"/>
</svg>
