<svg viewBox="0 0 3153 1068" fill="none" xmlns="http://www.w3.org/2000/svg">
<path d="M846.939 410.477C845.469 494.705 825.806 548.156 781.967 613.153C760.322 645.243 736.956 666.171 698.655 710.622C679.362 733.013 641.624 805.863 625.101 851.427C616.205 875.958 654.179 912.929 621.184 913.505C588.189 914.081 617.815 880.44 606.709 857.749C589.176 821.928 552.278 791.068 529.99 796.981C513.092 801.464 451.749 860.309 430.44 921.704C405.44 993.736 475.281 1067.52 419.466 1066.55C358.228 1065.48 427.042 1002.14 410.559 928.683C396.847 867.58 316.537 797.97 300.025 792.967C268.036 793.525 267.012 849.676 251.518 849.947C236.025 850.217 223.792 806.242 210.715 809.944C192.476 815.108 181.56 818.543 176.53 851.256C171.981 880.839 195.115 925.812 172.681 926.203C150.246 926.595 161.777 865.515 154.78 837.133C148.193 810.41 126.832 697.099 99.4808 648.569C16.1871 500.778 -8.9482 388.171 51.359 231.599C111.231 76.1576 355.153 19.6875 436.557 21.1084C668.482 25.1567 850.987 178.553 846.939 410.477Z" fill="black"/>
<path d="M254.211 876.404C264.983 876.216 297.779 960.783 258.903 959.968C221.113 959.175 243.439 876.592 254.211 876.404Z" fill="black"/>
<path fill-rule="evenodd" clip-rule="evenodd" d="M846.439 410.469C850.482 178.876 668.257 25.6528 436.549 21.6083C395.929 20.8993 314.667 34.6428 236.079 67.9906C157.483 101.342 81.6883 154.248 51.8256 231.779C21.6966 310.001 12.9213 377.21 22.0648 443.309C31.2097 509.417 58.2835 574.453 99.9164 648.324C113.629 672.654 125.82 713.176 135.402 750.906C140.195 769.78 144.338 787.972 147.695 803.113C148.735 807.804 149.699 812.2 150.583 816.233C152.555 825.224 154.13 832.407 155.266 837.013C157.029 844.167 157.62 853.354 157.874 863.066C157.978 867.078 158.025 871.174 158.072 875.26C158.14 881.098 158.206 886.915 158.441 892.437C158.839 901.82 159.718 910.237 161.874 916.274C162.95 919.289 164.332 921.671 166.095 923.284C167.845 924.885 169.994 925.75 172.672 925.703C175.39 925.656 177.359 924.936 178.772 923.707C180.19 922.474 181.105 920.679 181.619 918.379C182.652 913.752 182.025 907.26 180.819 899.756C180.336 896.756 179.76 893.591 179.168 890.334C178.289 885.502 177.373 880.465 176.669 875.461C175.488 867.065 174.887 858.649 176.036 851.18C178.556 834.787 182.565 825.621 188.317 819.914C194.061 814.215 201.482 812.039 210.579 809.463C214.158 808.45 217.567 810.733 220.801 814.337C224.031 817.937 227.263 823.054 230.536 828.238L230.633 828.392C233.954 833.649 237.323 838.969 240.822 842.96C244.338 846.971 247.875 849.51 251.51 849.447C253.279 849.416 254.874 848.592 256.387 847.089C257.906 845.58 259.314 843.415 260.692 840.777C262.462 837.388 264.146 833.3 265.946 828.929C266.958 826.472 268.007 823.926 269.128 821.364C272.228 814.285 275.865 807.142 280.759 801.732C285.665 796.308 291.85 792.609 300.016 792.467L300.095 792.465L300.17 792.488C302.308 793.136 305.419 794.806 309.228 797.311C313.048 799.824 317.607 803.203 322.649 807.303C332.733 815.502 344.765 826.598 356.708 839.447C380.578 865.129 404.161 897.888 411.047 928.573C418.397 961.327 408.856 992.081 401.394 1016.13C400.453 1019.17 399.545 1022.09 398.708 1024.9C396.837 1031.19 395.324 1036.88 394.577 1041.9C393.83 1046.92 393.859 1051.22 395.032 1054.73C396.196 1058.21 398.502 1060.96 402.399 1062.88C406.316 1064.81 411.855 1065.92 419.475 1066.05C426.409 1066.17 431.315 1065.13 434.682 1063.13C438.025 1061.15 439.902 1058.19 440.723 1054.35C441.549 1050.49 441.305 1045.74 440.381 1040.22C439.458 1034.71 437.865 1028.47 436.026 1021.63C435.62 1020.13 435.203 1018.59 434.778 1017.03C427.506 990.304 418.101 955.731 429.968 921.54C440.651 890.759 461.358 860.644 481.493 837.671C491.563 826.181 501.499 816.468 509.982 809.343C514.223 805.781 518.105 802.861 521.463 800.689C524.813 798.522 527.672 797.078 529.862 796.497C535.57 794.983 542.168 795.833 549.093 798.477C556.022 801.122 563.317 805.576 570.447 811.326C584.705 822.825 598.359 839.552 607.158 857.529C609.995 863.326 610.217 869.794 609.513 876.17C609.066 880.216 608.235 884.285 607.449 888.134C607.002 890.321 606.57 892.436 606.231 894.436C605.759 897.218 605.463 899.792 605.532 902.084C605.601 904.377 606.034 906.356 606.994 907.972C608.889 911.162 612.983 913.148 621.175 913.005C625.261 912.934 628.189 912.298 630.229 911.235C632.25 910.181 633.418 908.699 633.987 906.864C634.563 905.007 634.536 902.754 634.085 900.164C633.634 897.578 632.769 894.7 631.707 891.612C631.062 889.736 630.344 887.782 629.606 885.774C627.925 881.2 626.143 876.349 624.892 871.52C623.09 864.562 622.355 857.532 624.631 851.257C632.903 828.447 646.478 798.822 660.396 772.104C674.307 745.398 688.588 721.54 698.276 710.295C711.885 694.501 723.613 681.672 734.042 670.263C738.292 665.613 742.327 661.199 746.185 656.917C759.515 642.124 770.749 628.89 781.552 612.873C825.343 547.948 844.971 494.59 846.439 410.469ZM436.566 20.6085C668.707 24.6605 851.493 178.229 847.439 410.486C845.967 494.82 826.27 548.363 782.381 613.432C771.54 629.506 760.269 642.781 746.928 657.586C743.062 661.878 739.023 666.297 734.769 670.949C724.343 682.355 712.632 695.166 699.034 710.948C689.429 722.095 675.195 745.858 661.283 772.566C647.378 799.26 633.823 828.843 625.571 851.597C623.399 857.588 624.075 864.378 625.86 871.269C627.098 876.049 628.851 880.819 630.524 885.372C631.267 887.392 631.994 889.37 632.653 891.286C633.719 894.389 634.606 897.327 635.07 899.992C635.534 902.653 635.585 905.087 634.942 907.16C634.292 909.255 632.944 910.947 630.692 912.122C628.459 913.286 625.356 913.932 621.193 914.005C612.887 914.15 608.311 912.146 606.134 908.482C605.058 906.671 604.605 904.506 604.533 902.114C604.461 899.723 604.77 897.074 605.245 894.269C605.596 892.2 606.034 890.054 606.484 887.855C607.263 884.044 608.076 880.072 608.519 876.06C609.215 869.764 608.976 863.518 606.26 857.969C597.526 840.125 583.965 823.512 569.819 812.104C562.747 806.4 555.542 802.009 548.736 799.411C541.927 796.812 535.554 796.022 530.118 797.464C528.083 798.004 525.329 799.379 522.007 801.529C518.693 803.672 514.844 806.565 510.625 810.109C502.187 817.197 492.287 826.873 482.245 838.33C462.158 861.249 441.538 891.253 430.913 921.868C419.151 955.756 428.476 990.048 435.756 1016.82C436.176 1018.36 436.589 1019.88 436.991 1021.37C438.831 1028.21 440.436 1034.49 441.368 1040.06C442.299 1045.62 442.567 1050.52 441.701 1054.56C440.831 1058.63 438.811 1061.84 435.192 1063.99C431.598 1066.12 426.477 1067.17 419.458 1067.05C411.768 1066.91 406.062 1065.8 401.956 1063.78C397.831 1061.74 395.336 1058.79 394.083 1055.04C392.838 1051.32 392.831 1046.84 393.588 1041.75C394.346 1036.66 395.877 1030.91 397.75 1024.62C398.59 1021.8 399.5 1018.86 400.441 1015.83C407.905 991.755 417.358 961.267 410.071 928.792C403.245 898.375 379.817 865.778 355.976 840.128C344.063 827.311 332.065 816.248 322.018 808.078C316.995 803.994 312.463 800.636 308.678 798.146C304.928 795.679 301.945 794.088 299.955 793.468C292.166 793.627 286.251 797.151 281.5 802.403C276.721 807.687 273.136 814.703 270.044 821.765C268.945 824.275 267.907 826.797 266.898 829.245C265.084 833.649 263.368 837.815 261.579 841.24C260.182 843.912 258.718 846.183 257.091 847.798C255.458 849.42 253.631 850.41 251.527 850.447C247.415 850.518 243.613 847.662 240.07 843.619C236.509 839.557 233.097 834.165 229.788 828.926L229.725 828.827C226.425 823.601 223.23 818.542 220.056 815.005C216.834 811.413 213.81 809.588 210.852 810.425C201.709 813.014 194.552 815.137 189.021 820.624C183.498 826.105 179.534 835.012 177.024 851.332C175.898 858.654 176.483 866.954 177.659 875.322C178.362 880.321 179.269 885.305 180.144 890.111C180.737 893.371 181.316 896.55 181.806 899.597C183.01 907.083 183.676 913.757 182.595 918.597C182.051 921.03 181.058 923.044 179.429 924.461C177.795 925.882 175.58 926.653 172.689 926.703C169.758 926.754 167.36 925.797 165.42 924.021C163.492 922.258 162.039 919.71 160.932 916.611C158.721 910.418 157.84 901.866 157.442 892.48C157.207 886.953 157.14 881.098 157.072 875.241C157.025 871.156 156.978 867.069 156.874 863.092C156.621 853.382 156.03 844.291 154.295 837.253C153.156 832.633 151.576 825.428 149.602 816.428C148.719 812.398 147.756 808.008 146.719 803.329C143.363 788.192 139.222 770.012 134.432 751.152C124.849 713.413 112.684 673.014 99.0452 648.815C57.3844 574.895 30.2437 509.732 21.0743 443.446C11.9035 377.15 20.7141 309.77 50.8924 231.419C80.9013 153.509 157.004 100.459 235.688 67.0701C314.381 33.6777 395.782 19.8966 436.566 20.6085ZM256.169 877.722C255.385 877.142 254.734 876.895 254.22 876.904C253.705 876.913 253.093 877.171 252.392 877.75C251.694 878.325 250.951 879.182 250.182 880.299C248.645 882.533 247.053 885.738 245.552 889.609C242.551 897.348 239.941 907.67 238.843 918.012C237.745 928.364 238.168 938.674 241.178 946.422C242.681 950.289 244.821 953.498 247.718 955.763C250.61 958.025 254.287 959.371 258.913 959.468C263.679 959.568 267.298 958.361 269.993 956.213C272.693 954.061 274.512 950.927 275.605 947.092C277.794 939.402 277.024 929.012 274.687 918.53C272.353 908.062 268.473 897.573 264.509 889.721C262.527 885.794 260.532 882.543 258.711 880.288C257.8 879.16 256.944 878.297 256.169 877.722ZM270.617 956.995C267.706 959.315 263.846 960.572 258.892 960.468C254.071 960.367 250.18 958.958 247.102 956.551C244.028 954.148 241.796 950.773 240.246 946.784C237.151 938.819 236.743 928.323 237.849 917.906C238.956 907.479 241.585 897.071 244.619 889.248C246.135 885.338 247.76 882.054 249.358 879.732C250.157 878.572 250.96 877.634 251.755 876.979C252.545 876.327 253.37 875.918 254.202 875.904C255.035 875.889 255.903 876.281 256.764 876.918C257.633 877.562 258.548 878.495 259.489 879.66C261.371 881.991 263.403 885.31 265.402 889.271C269.403 897.197 273.311 907.764 275.663 918.312C278.012 928.846 278.825 939.434 276.566 947.365C275.435 951.341 273.523 954.678 270.617 956.995Z" fill="black"/>
<path d="M829.012 389.51C827.542 473.738 807.879 527.189 764.039 592.186C742.395 624.276 719.029 645.204 680.728 689.655C661.435 712.046 623.697 784.896 607.174 830.46C598.278 854.991 636.252 891.962 603.257 892.538C570.262 893.114 599.888 859.473 588.781 836.782C571.249 800.961 534.351 770.101 512.063 776.014C495.165 780.497 433.822 839.342 412.513 900.737C387.512 972.769 457.354 1046.56 401.539 1045.58C340.3 1044.51 409.115 981.17 392.632 907.716C378.92 846.613 298.609 777.003 282.098 772C250.109 772.558 249.085 828.709 233.591 828.98C218.098 829.25 205.864 785.275 192.788 788.977C174.549 794.141 163.633 797.576 158.603 830.289C154.054 859.872 177.188 904.845 154.753 905.236C132.319 905.628 143.849 844.548 136.853 816.166C130.266 789.443 108.905 676.132 81.5536 627.602C-1.74014 479.811 -26.8754 367.204 33.4317 210.632C93.3034 55.1906 337.226 -1.27947 418.63 0.141438C650.554 4.1897 833.06 157.586 829.012 389.51Z" fill="#FFF375"/>
<path d="M236.284 855.437C247.056 855.249 279.852 939.816 240.976 939.001C203.186 938.208 225.512 855.625 236.284 855.437Z" fill="#FFF375"/>
<path fill-rule="evenodd" clip-rule="evenodd" d="M507.662 296.888L564.948 350.308L592.228 321.054L534.942 267.634L588.362 210.348L559.108 183.069L505.688 240.354L448.402 186.934L421.122 216.189L478.408 269.608L424.988 326.894L454.242 354.174L507.662 296.888Z" fill="#FF4D4D"/>
<path fill-rule="evenodd" clip-rule="evenodd" d="M239.329 380.565L292.082 405.164L308.987 368.911L256.234 344.312L280.833 291.56L244.581 274.655L219.982 327.408L167.229 302.809L150.324 339.061L203.077 363.66L178.478 416.413L214.73 433.317L239.329 380.565Z" fill="#FF4D4D"/>
<path d="M663.931 421.39C663.481 432.174 649.96 484.714 634.164 509.328C625.091 523.465 613.254 538.77 598.82 553.732C564.893 588.901 516.618 622.175 456.178 633.923C409.191 643.056 374.423 619.391 336.605 621.524C317.053 622.627 308.944 641.689 266.786 639.68C228.692 637.863 182.005 591.343 179.533 578.623C193.904 589.667 231.947 616.953 273.919 618.727C289.422 619.382 316.788 590.851 336.261 590.934C371.423 591.085 402.534 618.386 445.415 610.051C497.476 599.932 540.496 568.786 573.776 536.692C588.843 522.162 601.913 507.437 612.921 494.381C638.747 463.751 656.132 431.056 663.931 421.39Z" fill="#FF4D4D"/>
<path fill-rule="evenodd" clip-rule="evenodd" d="M663.931 421.39C663.578 421.827 663.206 422.312 662.814 422.841C660.275 426.269 656.919 431.575 652.772 438.13C643.406 452.936 630.012 474.111 612.921 494.381C601.913 507.437 588.843 522.162 573.776 536.692C540.496 568.786 497.476 599.932 445.415 610.051C420.473 614.899 399.514 607.691 379.423 600.782C364.973 595.812 350.972 590.997 336.261 590.934C326.112 590.891 313.818 598.621 302.177 605.94C291.484 612.664 281.342 619.041 273.919 618.727C233.175 617.005 196.133 591.242 180.854 579.633C180.394 579.283 179.953 578.946 179.533 578.623C179.629 579.117 179.792 579.662 180.018 580.253C185.618 594.888 230.171 637.934 266.786 639.68C292.877 640.923 305.927 634.096 316.718 628.45C323.364 624.973 329.153 621.944 336.605 621.524C352.714 620.615 368.27 624.388 384.453 628.312C406.261 633.601 429.206 639.166 456.178 633.923C516.618 622.175 564.893 588.901 598.82 553.732C613.254 538.77 625.091 523.465 634.164 509.328C649.202 485.894 662.179 437.147 663.777 423.221C663.858 422.52 663.91 421.907 663.931 421.39ZM662.539 424.935C661.007 427.115 659.21 429.87 657.145 433.103C656.045 434.827 654.87 436.685 653.622 438.657C651.33 442.28 648.794 446.29 646.026 450.567C637.467 463.793 626.638 479.664 613.686 495.025C602.665 508.096 589.571 522.849 574.47 537.412C541.127 569.567 497.938 600.86 445.605 611.033C423.904 615.251 405.202 610.44 387.629 604.624C384.74 603.668 381.886 602.687 379.056 601.714C364.605 596.746 350.787 591.996 336.257 591.934C331.614 591.914 326.415 593.606 320.917 596.236C315.429 598.86 309.744 602.369 304.133 605.892C303.656 606.192 303.178 606.492 302.702 606.791C297.602 609.998 292.58 613.156 287.917 615.539C282.844 618.133 278.028 619.902 273.877 619.726C234.024 618.042 197.763 593.572 181.671 581.502C182.095 582.345 182.629 583.276 183.273 584.287C184.828 586.728 186.971 589.557 189.61 592.621C194.886 598.749 202.1 605.772 210.428 612.46C227.125 625.871 248.112 637.788 266.834 638.681C287.727 639.677 300.13 635.457 309.742 630.867C312.041 629.768 314.183 628.648 316.259 627.562L316.574 627.397C318.742 626.263 320.848 625.167 322.959 624.2C327.192 622.259 331.492 620.811 336.548 620.526C352.819 619.608 368.538 623.422 384.715 627.346C387.522 628.027 390.342 628.711 393.181 629.375C412.439 633.875 432.708 637.466 455.987 632.941C516.176 621.242 564.276 588.1 598.1 553.038C612.489 538.123 624.285 522.87 633.322 508.788C641.143 496.601 648.44 477.422 653.846 459.879C656.545 451.12 658.765 442.796 660.337 435.993C661.37 431.523 662.116 427.741 662.539 424.935Z" fill="#FF4D4D"/>
<path fill-rule="evenodd" clip-rule="evenodd" d="M494.78 275.184L552.066 328.604L579.346 299.35L522.06 245.93L575.48 188.645L546.226 161.365L492.806 218.65L435.521 165.231L408.241 194.485L465.526 247.904L412.107 305.19L441.361 332.47L494.78 275.184Z" fill="#9DFFFA"/>
<path fill-rule="evenodd" clip-rule="evenodd" d="M225.083 365.799L277.835 390.398L294.74 354.145L241.987 329.547L266.586 276.794L230.334 259.889L205.735 312.642L152.982 288.043L136.078 324.295L188.83 348.894L164.231 401.647L200.484 418.551L225.083 365.799Z" fill="#9DFFFA"/>
<path d="M649.737 405.626C649.286 416.41 635.765 468.95 619.969 493.564C610.897 507.7 599.06 523.006 584.626 537.968C550.699 573.136 502.424 606.41 441.984 618.159C394.997 627.292 360.229 603.627 322.41 605.759C302.859 606.862 294.75 625.925 252.592 623.915C214.498 622.099 167.811 575.578 165.338 562.858C179.71 573.903 217.753 601.189 259.725 602.963C275.227 603.618 302.594 575.086 322.067 575.17C357.229 575.32 388.339 602.622 431.22 594.287C483.281 584.167 526.302 553.022 559.581 520.928C574.648 506.397 587.718 491.673 598.727 478.616C624.552 447.987 641.938 415.291 649.737 405.626Z" fill="#9DFFFA"/>
<path fill-rule="evenodd" clip-rule="evenodd" d="M649.737 405.626C649.384 406.063 649.011 406.547 648.619 407.077C646.081 410.504 642.724 415.811 638.578 422.365C629.212 437.172 615.818 458.346 598.727 478.616C587.718 491.673 574.648 506.397 559.581 520.928C526.302 553.022 483.281 584.167 431.22 594.287C406.279 599.135 385.32 591.927 365.229 585.018C350.778 580.048 336.777 575.233 322.067 575.17C311.917 575.126 299.623 582.856 287.983 590.176C277.289 596.899 267.147 603.276 259.725 602.963C218.981 601.241 181.939 575.477 166.66 563.868C166.199 563.518 165.759 563.181 165.338 562.858C165.434 563.352 165.597 563.897 165.823 564.488C171.424 579.124 215.977 622.169 252.592 623.915C278.683 625.159 291.732 618.332 302.524 612.685C309.169 609.209 314.959 606.18 322.41 605.759C338.52 604.851 354.076 608.623 370.259 612.548C392.066 617.837 415.012 623.401 441.984 618.159C502.424 606.41 550.699 573.136 584.626 537.968C599.06 523.006 610.897 507.7 619.969 493.564C635.008 470.13 647.985 421.383 649.583 407.457C649.664 406.756 649.715 406.143 649.737 405.626ZM648.344 409.17C646.812 411.35 645.015 414.105 642.951 417.339C641.85 419.063 640.675 420.92 639.428 422.893C637.136 426.515 634.599 430.525 631.831 434.803C623.272 448.028 612.443 463.899 599.491 479.261C588.471 492.331 575.376 507.085 560.275 521.648C526.933 553.803 483.744 585.096 431.411 595.268C409.709 599.487 391.007 594.675 373.435 588.86C370.546 587.904 367.692 586.923 364.862 585.95C350.411 580.982 336.593 576.232 322.063 576.17C317.419 576.15 312.221 577.841 306.722 580.471C301.235 583.096 295.55 586.604 289.939 590.127C289.461 590.427 288.984 590.727 288.508 591.027C283.408 594.233 278.386 597.391 273.723 599.775C268.65 602.368 263.834 604.137 259.683 603.962C219.829 602.278 183.569 577.807 167.476 565.738C167.901 566.581 168.435 567.512 169.079 568.522C170.633 570.964 172.777 573.792 175.416 576.857C180.692 582.985 187.905 590.007 196.233 596.696C212.931 610.107 233.918 622.024 252.639 622.916C273.533 623.912 285.936 619.692 295.547 615.102C297.847 614.004 299.988 612.883 302.064 611.797L302.38 611.632C304.548 610.498 306.653 609.403 308.764 608.435C312.998 606.494 317.297 605.046 322.354 604.761C338.624 603.843 354.344 607.657 370.521 611.582C373.327 612.263 376.147 612.947 378.986 613.61C398.245 618.11 418.514 621.702 441.793 617.177C501.982 605.477 550.082 572.335 583.906 537.274C598.294 522.359 610.091 507.105 619.128 493.024C626.948 480.837 634.246 461.658 639.652 444.114C642.351 435.356 644.57 427.031 646.143 420.229C647.176 415.758 647.922 411.977 648.344 409.17Z" fill="#9DFFFA"/>
<path fill-rule="evenodd" clip-rule="evenodd" d="M531.628 254.443L588.914 307.862L561.634 337.116L504.348 283.697L450.928 340.982L421.674 313.702L475.094 256.417L417.808 202.997L445.088 173.743L502.374 227.163L555.794 169.877L585.048 197.157L531.628 254.443Z" fill="black"/>
<path fill-rule="evenodd" clip-rule="evenodd" d="M251.764 334.064L304.517 358.663L287.612 394.916L234.859 370.317L210.261 423.069L174.008 406.165L198.607 353.412L145.855 328.813L162.759 292.561L215.512 317.16L240.111 264.407L276.363 281.312L251.764 334.064Z" fill="black"/>
<path d="M659.461 411.142C659.011 421.926 645.49 474.466 629.694 499.08C620.622 513.217 608.784 528.522 594.35 543.484C560.423 578.653 512.148 611.927 451.708 623.675C404.721 632.808 369.953 609.143 332.135 611.276C312.583 612.379 304.474 631.441 262.316 629.432C224.222 627.615 177.536 581.095 175.063 568.375C189.434 579.419 227.477 606.705 269.449 608.479C284.952 609.134 312.318 580.603 331.792 580.686C366.953 580.837 398.064 608.139 440.945 599.803C493.006 589.684 536.026 558.539 569.306 526.444C584.373 511.914 597.443 497.189 608.451 484.133C634.277 453.503 651.662 420.808 659.461 411.142Z" fill="black"/>
<path d="M3022.53 496.691C3053.26 472.986 3077.4 447.818 3094.96 421.186C3071.55 414.163 3047.99 399.969 3024.28 378.605C3023.7 405.237 3023.11 444.599 3022.53 496.691ZM3149.39 397.042C3151.44 398.505 3152.47 400.408 3152.47 402.749C3152.47 404.798 3151.88 406.846 3150.71 408.895C3135.2 438.746 3114.71 465.231 3089.25 488.351C3063.79 511.471 3032.92 534.59 2996.63 557.71C2993.11 559.759 2989.16 561.661 2984.77 563.417C2980.38 564.88 2976.14 565.612 2972.04 565.612C2967.65 565.612 2963.85 564.441 2960.63 562.1C2957.12 559.466 2955.36 556.247 2955.36 552.442C2955.36 547.467 2958.14 543.077 2963.7 539.273C2964.29 538.98 2964.87 538.541 2965.46 537.956C2966.04 537.371 2966.92 536.785 2968.09 536.2L2969.85 427.332C2970.43 403.627 2971.02 367.484 2971.6 318.903C2971.31 318.318 2971.17 317.293 2971.17 315.83C2971.17 315.245 2971.46 313.782 2972.04 311.44V306.612C2972.34 301.051 2976.14 296.369 2983.46 292.564C2990.77 288.467 2998.53 286.418 3006.72 286.418C3012.28 286.418 3016.67 287.443 3019.89 289.491C3023.4 291.54 3025.16 294.759 3025.16 299.149V303.539C3060.57 352.412 3099.2 382.263 3141.05 393.091C3145.44 394.555 3148.22 395.872 3149.39 397.042Z" fill="black"/>
<path d="M2902.48 526.103C2906.87 527.567 2909.06 530.201 2909.06 534.005C2909.06 538.688 2906.28 543.809 2900.72 549.37C2894.58 555.515 2886.67 558.588 2877.02 558.588C2872.33 558.588 2868.38 558.003 2865.16 556.832C2849.65 551.857 2835.61 549.37 2823.02 549.37C2801.07 549.37 2778.68 556.393 2755.86 570.441C2752.05 573.075 2747.37 575.27 2741.81 577.025C2736.54 578.489 2731.57 579.22 2726.88 579.22C2722.49 579.22 2718.98 578.489 2716.35 577.025C2713.72 575.27 2712.4 572.636 2712.4 569.124C2712.4 567.075 2712.69 565.319 2713.28 563.856C2721.76 540.151 2728.49 518.787 2733.47 499.764C2738.74 480.742 2742.25 461.426 2744 441.818C2746.64 415.479 2747.96 396.164 2747.96 383.873C2747.96 351.388 2741.66 326.512 2729.08 309.245C2727.62 307.489 2726.88 305.148 2726.88 302.222C2726.88 296.369 2730.98 290.954 2739.18 285.979C2747.37 280.711 2755.42 278.078 2763.32 278.078C2768.59 278.078 2772.39 279.248 2774.73 281.589C2778.54 283.053 2781.03 285.394 2782.2 288.613C2789.51 307.928 2799.61 324.317 2812.49 337.779C2825.36 350.949 2840.58 357.534 2858.14 357.534C2861.36 357.534 2866.19 356.948 2872.63 355.778C2876.72 355.192 2879.36 354.9 2880.53 354.9C2885.5 354.9 2889.16 356.07 2891.5 358.412C2894.14 360.46 2895.45 363.387 2895.45 367.191C2895.45 371.288 2893.7 375.386 2890.19 379.483C2886.97 383.58 2882.58 386.507 2877.02 388.262C2865.02 392.36 2853.02 394.408 2841.02 394.408C2826.68 394.408 2812.93 391.482 2799.76 385.629C2799.17 402.017 2798.44 414.309 2797.56 422.503L2794.49 450.159C2805.9 448.111 2817.32 446.355 2828.73 444.891L2834.87 444.452C2846.58 444.452 2852.43 448.403 2852.43 456.305C2852.43 461.573 2849.51 466.255 2843.65 470.352C2837.8 474.45 2831.8 477.084 2825.66 478.254C2816.58 480.01 2804.15 481.912 2788.34 483.961C2785.12 498.301 2781.61 511.763 2777.81 524.347C2797.12 517.324 2816.73 513.812 2836.63 513.812C2858.58 513.812 2880.53 517.909 2902.48 526.103Z" fill="black"/>
<path d="M2549.63 416.357C2561.05 407.285 2570.27 399.237 2577.29 392.213C2584.61 385.19 2590.17 378.166 2593.97 371.142C2578.17 367.045 2554.76 360.314 2523.73 350.949L2521.54 440.063C2530.32 432.746 2535.44 428.356 2536.9 426.893L2549.63 416.357ZM2620.31 477.815C2622.65 473.133 2627.63 469.182 2635.24 465.963C2642.85 462.451 2650.16 460.695 2657.19 460.695C2666.84 460.695 2671.67 463.768 2671.67 469.913C2671.67 471.669 2671.23 473.718 2670.36 476.059C2658.36 504.154 2649.28 531.371 2643.14 557.71C2641.68 563.563 2637.43 568.977 2630.41 573.953C2627.48 577.757 2622.95 580.976 2616.8 583.61C2610.95 586.244 2605.09 587.561 2599.24 587.561C2594.26 587.561 2590.17 586.537 2586.95 584.488C2584.02 582.44 2582.41 579.22 2582.12 574.831C2580.95 555.808 2574.66 538.395 2563.24 522.591C2552.12 506.788 2537.78 496.545 2520.22 491.863L2518.03 555.515C2517.74 561.076 2513.05 566.197 2503.98 570.88C2495.2 575.562 2486.71 577.903 2478.52 577.903C2474.13 577.903 2470.62 577.172 2467.98 575.708C2465.35 573.953 2464.03 571.319 2464.03 567.807L2465.35 507.227C2461.55 504.593 2459.64 501.52 2459.64 498.008C2459.64 493.911 2461.84 489.96 2466.23 486.156C2467.69 432.892 2469.45 379.775 2471.5 326.805C2471.79 320.659 2475.89 315.391 2483.79 311.001C2491.98 306.319 2500.18 303.978 2508.37 303.978C2514.52 303.978 2518.91 305.441 2521.54 308.367C2553.44 317.147 2586.51 326.805 2620.75 337.34C2626.02 336.17 2629.68 335.584 2631.72 335.584C2636.7 335.584 2640.5 336.755 2643.14 339.096C2646.06 341.145 2647.53 344.364 2647.53 348.754C2647.53 360.753 2643.58 371.874 2635.68 382.117C2627.77 392.067 2616.8 403.188 2602.75 415.479L2593.97 423.381C2579.92 437.136 2566.32 449.281 2553.15 459.817C2577.14 466.548 2596.46 479.864 2611.09 499.764C2612.26 496.838 2615.34 489.521 2620.31 477.815Z" fill="black"/>
<path d="M2347.98 336.023C2347.98 329.878 2351.78 324.61 2359.39 320.22C2367 315.83 2374.9 313.635 2383.1 313.635C2388.07 313.635 2392.02 314.66 2394.95 316.708C2397.88 318.464 2399.19 321.391 2398.9 325.488C2398.32 350.656 2397.73 388.701 2397.15 439.624L2394.95 554.198C2394.66 560.637 2390.56 566.197 2382.66 570.88C2375.05 575.562 2367.15 577.903 2358.95 577.903C2353.69 577.903 2349.44 576.879 2346.22 574.831C2343.3 572.489 2341.83 569.124 2341.83 564.734L2343.59 492.741C2342.42 493.033 2340.66 493.18 2338.32 493.18L2329.54 492.741C2327.49 492.448 2324.42 492.302 2320.32 492.302C2318.28 492.302 2315.79 492.594 2312.86 493.18C2311.4 522.445 2309.35 547.321 2306.72 567.807C2306.13 573.953 2301.59 579.367 2293.11 584.049C2284.91 588.732 2276.72 591.073 2268.52 591.073C2263.55 591.073 2259.6 590.049 2256.67 588C2254.04 585.951 2252.87 582.879 2253.16 578.781C2257.55 538.395 2260.33 501.52 2261.5 468.158L2261.94 454.988C2262.82 429.527 2263.26 412.699 2263.26 404.505C2263.26 378.166 2261.65 361.923 2258.43 355.778C2253.75 356.07 2250.09 355.339 2247.45 353.583C2245.11 351.534 2243.94 349.047 2243.94 346.12C2243.94 343.193 2245.11 340.121 2247.45 336.901C2249.79 333.682 2252.72 331.048 2256.23 329C2267.35 322.854 2276.86 319.781 2284.77 319.781C2291.2 319.781 2296.91 321.83 2301.89 325.927C2309.5 332.365 2313.3 345.827 2313.3 366.313L2312.86 388.262C2313.74 403.188 2314.18 418.26 2314.18 433.478L2313.74 459.378C2315.5 458.792 2318.28 458.792 2322.08 459.378C2325.88 459.963 2328.81 460.256 2330.86 460.256C2332.91 460.256 2335.25 460.109 2337.88 459.817C2340.52 459.231 2342.86 458.793 2344.91 458.5L2347.98 336.023Z" fill="black"/>
<path d="M2156.56 489.668C2158.03 491.424 2161.39 495.228 2166.66 501.081C2172.22 506.934 2176.61 512.934 2179.83 519.08C2183.34 524.933 2185.1 530.639 2185.1 536.2C2185.1 543.224 2182.46 549.808 2177.19 555.954C2170.76 563.856 2162.85 567.807 2153.49 567.807C2149.39 567.807 2144.86 567.221 2139.88 566.051C2134.91 564.88 2131.69 564.149 2130.22 563.856C2107.1 559.173 2080.18 556.832 2049.45 556.832C2025.75 556.832 2000.58 558.003 1973.95 560.344C1971.6 560.637 1968.24 560.929 1963.85 561.222C1959.46 561.515 1955.51 561.661 1952 561.661C1941.46 561.661 1932.97 560.051 1926.54 556.832C1920.39 553.32 1917.32 547.028 1917.32 537.956C1917.32 532.688 1918.34 527.128 1920.39 521.275C1922.44 515.129 1925.51 507.812 1929.61 499.325L1933.56 490.107C1937.95 479.278 1942.78 471.084 1948.05 465.524C1953.31 459.671 1960.78 456.744 1970.43 456.744C1978.34 456.744 1984.48 459.378 1988.87 464.646C1993.55 469.621 1995.89 475.913 1995.89 483.522C1995.89 488.79 1994.58 494.058 1991.94 499.325C2010.38 498.155 2031.31 497.569 2054.72 497.569C2068.47 497.569 2078.86 497.716 2085.89 498.008C2058.96 464.06 2038.91 438.453 2025.75 421.186L1995.46 382.995C1990.77 377.142 1986.82 372.605 1983.6 369.386C1972.77 356.802 1964.58 346.12 1959.02 337.34C1953.46 328.268 1950.68 319.049 1950.68 309.684C1950.68 300.905 1953.75 293.881 1959.9 288.613C1966.34 283.053 1973.8 278.956 1982.29 276.322C1991.07 273.395 2002.04 270.615 2015.21 267.981L2033.65 264.03C2056.77 258.177 2080.62 252.909 2105.2 248.227C2107.25 247.934 2111.35 247.202 2117.49 246.032C2127.44 243.398 2136.22 242.081 2143.83 242.081C2153.49 242.081 2160.81 244.715 2165.78 249.983C2171.05 255.543 2173.68 261.25 2173.68 267.103C2173.68 272.663 2171.93 278.224 2168.42 283.784C2165.2 289.345 2159.93 296.661 2152.61 305.734C2143.83 316.269 2138.27 324.025 2135.93 329C2132.13 337.194 2128.03 344.071 2123.64 349.632C2119.54 355.192 2114.86 357.973 2109.59 357.973C2105.79 357.973 2101.98 356.509 2098.18 353.583C2094.08 350.364 2092.03 345.974 2092.03 340.413C2092.03 336.316 2092.91 332.073 2094.67 327.683C2096.71 323 2098.62 318.757 2100.37 314.952C2102.42 311.148 2103.74 308.806 2104.32 307.928C2089.4 310.562 2067.3 315.684 2038.04 323.293C2034.53 324.464 2027.35 326.366 2016.53 329L2069.2 389.579C2114.27 440.794 2143.39 474.157 2156.56 489.668Z" fill="black"/>
<path d="M1812.05 446.208C1816.44 435.087 1818.63 424.405 1818.63 414.163C1818.63 400.7 1814.83 389.726 1807.22 381.239C1795.81 367.777 1776.64 361.338 1749.71 361.923C1744.45 408.163 1740.35 463.914 1737.42 529.176C1754.1 520.397 1769.03 508.837 1782.2 494.496C1795.37 479.864 1805.32 463.768 1812.05 446.208ZM1754.1 327.683C1757.32 327.39 1762.3 327.244 1769.03 327.244C1804.73 327.244 1831.36 336.023 1848.92 353.583C1862.09 366.46 1868.68 382.995 1868.68 403.188C1868.68 413.724 1866.34 426.308 1861.65 440.94C1852 468.45 1835.9 493.18 1813.37 515.129C1790.83 536.785 1765.08 553.32 1736.11 564.734C1734.93 594.585 1734.06 620.631 1733.47 642.873C1732.89 665.407 1732.45 684.137 1732.15 699.063C1731.86 734.767 1730.98 770.617 1729.52 806.614C1729.23 812.76 1724.84 818.174 1716.35 822.856C1707.86 827.539 1699.23 829.88 1690.45 829.88C1680.21 829.88 1675.09 826.076 1675.09 818.466L1675.53 783.348C1675.82 771.934 1676.26 744.425 1676.84 700.819C1677.72 657.213 1679.04 616.534 1680.79 578.781C1672.89 579.659 1665.14 580.098 1657.53 580.098C1651.97 580.098 1647.87 579.22 1645.24 577.464C1642.31 575.708 1640.85 573.367 1640.85 570.441C1640.85 565.173 1644.5 559.612 1651.82 553.759C1658.84 547.906 1666.01 544.98 1673.33 544.98C1677.43 544.98 1680.35 544.833 1682.11 544.541C1685.33 481.62 1690.3 421.186 1697.04 363.24C1694.99 362.07 1693.96 360.168 1693.96 357.534C1693.96 354.022 1695.87 349.925 1699.67 345.242C1699.67 343.486 1699.96 340.56 1700.55 336.462C1701.43 330.317 1706.11 325.049 1714.6 320.659C1723.08 315.976 1731.28 313.635 1739.18 313.635C1744.15 313.635 1747.96 314.66 1750.59 316.708C1753.52 318.757 1754.69 321.83 1754.1 325.927V327.683Z" fill="black"/>
<path d="M1584.6 336.462C1584.89 330.609 1589.13 325.488 1597.33 321.098C1605.52 316.415 1613.72 314.074 1621.91 314.074C1626.59 314.074 1630.4 315.099 1633.32 317.147C1636.25 318.903 1637.57 321.83 1637.28 325.927L1624.55 564.295C1624.25 570.441 1620.01 575.855 1611.81 580.537C1603.62 584.927 1595.43 587.122 1587.23 587.122C1576.4 587.122 1571.14 582.879 1571.43 574.392L1584.6 336.462ZM1583.72 278.517C1583.13 282.614 1584.16 285.687 1586.79 287.735C1589.72 289.784 1593.52 290.808 1598.21 290.808C1606.11 290.808 1614.16 288.613 1622.35 284.223C1630.54 279.833 1635.08 274.566 1635.96 268.42C1638.3 253.787 1639.91 242.813 1640.79 235.496C1641.96 228.18 1637.42 224.522 1627.18 224.522C1619.28 224.522 1611.08 226.716 1602.6 231.106C1594.11 235.496 1589.57 240.471 1588.99 246.032L1583.72 278.517Z" fill="black"/>
<path d="M1399.45 416.357C1410.86 407.285 1420.08 399.237 1427.1 392.213C1434.42 385.19 1439.98 378.166 1443.78 371.142C1427.98 367.045 1404.57 360.314 1373.55 350.949L1371.35 440.063C1380.13 432.746 1385.25 428.356 1386.72 426.893L1399.45 416.357ZM1470.12 477.815C1472.46 473.133 1477.44 469.182 1485.05 465.963C1492.66 462.451 1499.97 460.695 1507 460.695C1516.65 460.695 1521.48 463.768 1521.48 469.913C1521.48 471.669 1521.04 473.718 1520.17 476.059C1508.17 504.154 1499.1 531.371 1492.95 557.71C1491.49 563.563 1487.24 568.977 1480.22 573.953C1477.29 577.757 1472.76 580.976 1466.61 583.61C1460.76 586.244 1454.9 587.561 1449.05 587.561C1444.08 587.561 1439.98 586.537 1436.76 584.488C1433.83 582.44 1432.22 579.22 1431.93 574.831C1430.76 555.808 1424.47 538.395 1413.05 522.591C1401.93 506.788 1387.59 496.545 1370.03 491.863L1367.84 555.515C1367.55 561.076 1362.86 566.197 1353.79 570.88C1345.01 575.562 1336.53 577.903 1328.33 577.903C1323.94 577.903 1320.43 577.172 1317.8 575.708C1315.16 573.953 1313.84 571.319 1313.84 567.807L1315.16 507.227C1311.36 504.593 1309.45 501.52 1309.45 498.008C1309.45 493.911 1311.65 489.96 1316.04 486.156C1317.5 432.892 1319.26 379.775 1321.31 326.805C1321.6 320.659 1325.7 315.391 1333.6 311.001C1341.79 306.319 1349.99 303.978 1358.18 303.978C1364.33 303.978 1368.72 305.441 1371.35 308.367C1403.25 317.147 1436.32 326.805 1470.56 337.34C1475.83 336.17 1479.49 335.584 1481.54 335.584C1486.51 335.584 1490.32 336.755 1492.95 339.096C1495.88 341.145 1497.34 344.364 1497.34 348.754C1497.34 360.753 1493.39 371.874 1485.49 382.117C1477.59 392.067 1466.61 403.188 1452.56 415.479L1443.78 423.381C1429.74 437.136 1416.13 449.281 1402.96 459.817C1426.96 466.548 1446.27 479.864 1460.9 499.764C1462.07 496.838 1465.15 489.521 1470.12 477.815Z" fill="black"/>
<path d="M1309.68 231.545C1316.12 231.838 1319.34 235.057 1319.34 241.203C1319.34 246.178 1317.73 251.885 1314.51 258.323C1311.29 264.762 1308.07 269.883 1304.86 273.688C1298.71 281.297 1291.69 286.418 1283.78 289.052C1275.88 291.686 1266.81 293.003 1256.57 293.003C1253.06 293.003 1247.49 292.71 1239.89 292.125C1230.52 291.54 1223.5 291.393 1218.81 291.686C1216.47 291.686 1213.69 291.686 1210.47 291.686C1207.55 291.686 1205.5 292.271 1204.33 293.442C1203.45 294.613 1202.28 297.247 1200.82 301.344C1199.94 304.27 1199.35 308.075 1199.06 312.757C1199.06 317.44 1199.06 320.805 1199.06 322.854L1195.99 371.581C1195.11 388.555 1194.52 403.481 1194.23 416.357C1193.94 428.942 1193.65 439.477 1193.35 447.964C1193.35 459.378 1193.21 467.865 1192.91 473.425C1195.26 472.84 1196.87 472.547 1197.74 472.547C1204.18 472.547 1207.4 477.522 1207.4 487.473C1207.4 494.497 1206.23 501.959 1203.89 509.861C1201.84 517.763 1199.21 526.542 1195.99 536.2C1194.23 541.175 1190.43 547.906 1184.57 556.393C1179.01 564.588 1172.72 571.758 1165.7 577.903C1158.67 584.049 1152.53 587.122 1147.26 587.122C1140.53 587.122 1135.99 581.854 1133.65 571.319C1131.31 561.076 1130.14 548.784 1130.14 534.444C1130.14 518.348 1131.75 498.008 1134.97 473.425L1138.04 441.818C1142.43 384.751 1147.85 338.218 1154.28 302.222C1152.53 302.807 1147.7 304.417 1139.8 307.051C1132.19 309.392 1125.16 312.172 1118.73 315.391C1112.29 318.61 1107.31 321.976 1103.8 325.488C1100 329.585 1096.63 334.853 1093.7 341.291C1089.9 347.73 1086.53 352.705 1083.61 356.217C1080.97 359.729 1077.02 362.509 1071.76 364.557C1068.54 366.021 1065.32 366.752 1062.1 366.752C1055.95 366.752 1052.88 362.948 1052.88 355.339C1052.88 350.364 1054.05 344.51 1056.39 337.779C1058.73 331.048 1061.22 325.634 1063.85 321.537C1083.46 289.345 1113.6 266.225 1154.28 252.178C1194.96 237.837 1237.98 230.667 1283.35 230.667C1289.78 230.667 1298.56 230.96 1309.68 231.545Z" fill="black"/>
<path d="M3002.53 472.691C3033.26 448.986 3057.4 423.818 3074.96 397.186C3051.55 390.163 3027.99 375.969 3004.28 354.605C3003.7 381.237 3003.11 420.599 3002.53 472.691ZM3129.39 373.042C3131.44 374.505 3132.47 376.408 3132.47 378.749C3132.47 380.798 3131.88 382.846 3130.71 384.895C3115.2 414.746 3094.71 441.231 3069.25 464.351C3043.79 487.471 3012.92 510.59 2976.63 533.71C2973.11 535.759 2969.16 537.661 2964.77 539.417C2960.38 540.88 2956.14 541.612 2952.04 541.612C2947.65 541.612 2943.85 540.441 2940.63 538.1C2937.12 535.466 2935.36 532.247 2935.36 528.442C2935.36 523.467 2938.14 519.077 2943.7 515.273C2944.29 514.98 2944.87 514.541 2945.46 513.956C2946.04 513.371 2946.92 512.785 2948.09 512.2L2949.85 403.332C2950.43 379.627 2951.02 343.484 2951.6 294.903C2951.31 294.318 2951.17 293.293 2951.17 291.83C2951.17 291.245 2951.46 289.782 2952.04 287.44V282.612C2952.34 277.051 2956.14 272.369 2963.46 268.564C2970.77 264.467 2978.53 262.418 2986.72 262.418C2992.28 262.418 2996.67 263.443 2999.89 265.491C3003.4 267.54 3005.16 270.759 3005.16 275.149V279.539C3040.57 328.412 3079.2 358.263 3121.05 369.091C3125.44 370.555 3128.22 371.872 3129.39 373.042Z" fill="white"/>
<path d="M2882.48 502.103C2886.87 503.567 2889.06 506.201 2889.06 510.005C2889.06 514.688 2886.28 519.809 2880.72 525.37C2874.58 531.515 2866.67 534.588 2857.02 534.588C2852.33 534.588 2848.38 534.003 2845.16 532.832C2829.65 527.857 2815.61 525.37 2803.02 525.37C2781.07 525.37 2758.68 532.393 2735.86 546.441C2732.05 549.075 2727.37 551.27 2721.81 553.025C2716.54 554.489 2711.57 555.22 2706.88 555.22C2702.49 555.22 2698.98 554.489 2696.35 553.025C2693.72 551.27 2692.4 548.636 2692.4 545.124C2692.4 543.075 2692.69 541.319 2693.28 539.856C2701.76 516.151 2708.49 494.787 2713.47 475.764C2718.74 456.742 2722.25 437.426 2724 417.818C2726.64 391.479 2727.96 372.164 2727.96 359.873C2727.96 327.388 2721.66 302.512 2709.08 285.245C2707.62 283.489 2706.88 281.148 2706.88 278.222C2706.88 272.369 2710.98 266.954 2719.18 261.979C2727.37 256.711 2735.42 254.078 2743.32 254.078C2748.59 254.078 2752.39 255.248 2754.73 257.589C2758.54 259.053 2761.03 261.394 2762.2 264.613C2769.51 283.928 2779.61 300.317 2792.49 313.779C2805.36 326.949 2820.58 333.534 2838.14 333.534C2841.36 333.534 2846.19 332.948 2852.63 331.778C2856.72 331.192 2859.36 330.9 2860.53 330.9C2865.5 330.9 2869.16 332.07 2871.5 334.412C2874.14 336.46 2875.45 339.387 2875.45 343.191C2875.45 347.288 2873.7 351.386 2870.19 355.483C2866.97 359.58 2862.58 362.507 2857.02 364.262C2845.02 368.36 2833.02 370.408 2821.02 370.408C2806.68 370.408 2792.93 367.482 2779.76 361.629C2779.17 378.017 2778.44 390.309 2777.56 398.503L2774.49 426.159C2785.9 424.111 2797.32 422.355 2808.73 420.891L2814.87 420.452C2826.58 420.452 2832.43 424.403 2832.43 432.305C2832.43 437.573 2829.51 442.255 2823.65 446.352C2817.8 450.45 2811.8 453.084 2805.66 454.254C2796.58 456.01 2784.15 457.912 2768.34 459.961C2765.12 474.301 2761.61 487.763 2757.81 500.347C2777.12 493.324 2796.73 489.812 2816.63 489.812C2838.58 489.812 2860.53 493.909 2882.48 502.103Z" fill="white"/>
<path d="M2529.63 392.357C2541.05 383.285 2550.27 375.237 2557.29 368.213C2564.61 361.19 2570.17 354.166 2573.97 347.142C2558.17 343.045 2534.76 336.314 2503.73 326.949L2501.54 416.063C2510.32 408.746 2515.44 404.356 2516.9 402.893L2529.63 392.357ZM2600.31 453.815C2602.65 449.133 2607.63 445.182 2615.24 441.963C2622.85 438.451 2630.16 436.695 2637.19 436.695C2646.84 436.695 2651.67 439.768 2651.67 445.913C2651.67 447.669 2651.23 449.718 2650.36 452.059C2638.36 480.154 2629.28 507.371 2623.14 533.71C2621.68 539.563 2617.43 544.977 2610.41 549.953C2607.48 553.757 2602.95 556.976 2596.8 559.61C2590.95 562.244 2585.09 563.561 2579.24 563.561C2574.26 563.561 2570.17 562.537 2566.95 560.488C2564.02 558.44 2562.41 555.22 2562.12 550.831C2560.95 531.808 2554.66 514.395 2543.24 498.591C2532.12 482.788 2517.78 472.545 2500.22 467.863L2498.03 531.515C2497.74 537.076 2493.05 542.197 2483.98 546.88C2475.2 551.562 2466.71 553.903 2458.52 553.903C2454.13 553.903 2450.62 553.172 2447.98 551.708C2445.35 549.953 2444.03 547.319 2444.03 543.807L2445.35 483.227C2441.55 480.593 2439.64 477.52 2439.64 474.008C2439.64 469.911 2441.84 465.96 2446.23 462.156C2447.69 408.892 2449.45 355.775 2451.5 302.805C2451.79 296.659 2455.89 291.391 2463.79 287.001C2471.98 282.319 2480.18 279.978 2488.37 279.978C2494.52 279.978 2498.91 281.441 2501.54 284.367C2533.44 293.147 2566.51 302.805 2600.75 313.34C2606.02 312.17 2609.68 311.584 2611.72 311.584C2616.7 311.584 2620.5 312.755 2623.14 315.096C2626.06 317.145 2627.53 320.364 2627.53 324.754C2627.53 336.753 2623.58 347.874 2615.68 358.117C2607.77 368.067 2596.8 379.188 2582.75 391.479L2573.97 399.381C2559.92 413.136 2546.32 425.281 2533.15 435.817C2557.14 442.548 2576.46 455.864 2591.09 475.764C2592.26 472.838 2595.34 465.521 2600.31 453.815Z" fill="white"/>
<path d="M2327.98 312.023C2327.98 305.878 2331.78 300.61 2339.39 296.22C2347 291.83 2354.9 289.635 2363.1 289.635C2368.07 289.635 2372.02 290.66 2374.95 292.708C2377.88 294.464 2379.19 297.391 2378.9 301.488C2378.32 326.656 2377.73 364.701 2377.15 415.624L2374.95 530.198C2374.66 536.637 2370.56 542.197 2362.66 546.88C2355.05 551.562 2347.15 553.903 2338.95 553.903C2333.69 553.903 2329.44 552.879 2326.22 550.831C2323.3 548.489 2321.83 545.124 2321.83 540.734L2323.59 468.741C2322.42 469.033 2320.66 469.18 2318.32 469.18L2309.54 468.741C2307.49 468.448 2304.42 468.302 2300.32 468.302C2298.28 468.302 2295.79 468.594 2292.86 469.18C2291.4 498.445 2289.35 523.321 2286.72 543.807C2286.13 549.953 2281.59 555.367 2273.11 560.049C2264.91 564.732 2256.72 567.073 2248.52 567.073C2243.55 567.073 2239.6 566.049 2236.67 564C2234.04 561.951 2232.87 558.879 2233.16 554.781C2237.55 514.395 2240.33 477.52 2241.5 444.158L2241.94 430.988C2242.82 405.527 2243.26 388.699 2243.26 380.505C2243.26 354.166 2241.65 337.923 2238.43 331.778C2233.75 332.07 2230.09 331.339 2227.45 329.583C2225.11 327.534 2223.94 325.047 2223.94 322.12C2223.94 319.193 2225.11 316.121 2227.45 312.901C2229.79 309.682 2232.72 307.048 2236.23 305C2247.35 298.854 2256.86 295.781 2264.77 295.781C2271.2 295.781 2276.91 297.83 2281.89 301.927C2289.5 308.365 2293.3 321.827 2293.3 342.313L2292.86 364.262C2293.74 379.188 2294.18 394.26 2294.18 409.478L2293.74 435.378C2295.5 434.792 2298.28 434.792 2302.08 435.378C2305.88 435.963 2308.81 436.256 2310.86 436.256C2312.91 436.256 2315.25 436.109 2317.88 435.817C2320.52 435.231 2322.86 434.793 2324.91 434.5L2327.98 312.023Z" fill="white"/>
<path d="M2136.56 465.668C2138.03 467.424 2141.39 471.228 2146.66 477.081C2152.22 482.934 2156.61 488.934 2159.83 495.08C2163.34 500.933 2165.1 506.639 2165.1 512.2C2165.1 519.224 2162.46 525.808 2157.19 531.954C2150.76 539.856 2142.85 543.807 2133.49 543.807C2129.39 543.807 2124.86 543.221 2119.88 542.051C2114.91 540.88 2111.69 540.149 2110.22 539.856C2087.1 535.173 2060.18 532.832 2029.45 532.832C2005.75 532.832 1980.58 534.003 1953.95 536.344C1951.6 536.637 1948.24 536.929 1943.85 537.222C1939.46 537.515 1935.51 537.661 1932 537.661C1921.46 537.661 1912.97 536.051 1906.54 532.832C1900.39 529.32 1897.32 523.028 1897.32 513.956C1897.32 508.688 1898.34 503.128 1900.39 497.275C1902.44 491.129 1905.51 483.812 1909.61 475.325L1913.56 466.107C1917.95 455.278 1922.78 447.084 1928.05 441.524C1933.31 435.671 1940.78 432.744 1950.43 432.744C1958.34 432.744 1964.48 435.378 1968.87 440.646C1973.55 445.621 1975.89 451.913 1975.89 459.522C1975.89 464.79 1974.58 470.058 1971.94 475.325C1990.38 474.155 2011.31 473.569 2034.72 473.569C2048.47 473.569 2058.86 473.716 2065.89 474.008C2038.96 440.06 2018.91 414.453 2005.75 397.186L1975.46 358.995C1970.77 353.142 1966.82 348.605 1963.6 345.386C1952.77 332.802 1944.58 322.12 1939.02 313.34C1933.46 304.268 1930.68 295.049 1930.68 285.684C1930.68 276.905 1933.75 269.881 1939.9 264.613C1946.34 259.053 1953.8 254.956 1962.29 252.322C1971.07 249.395 1982.04 246.615 1995.21 243.981L2013.65 240.03C2036.77 234.177 2060.62 228.909 2085.2 224.227C2087.25 223.934 2091.35 223.202 2097.49 222.032C2107.44 219.398 2116.22 218.081 2123.83 218.081C2133.49 218.081 2140.81 220.715 2145.78 225.983C2151.05 231.543 2153.68 237.25 2153.68 243.103C2153.68 248.663 2151.93 254.224 2148.42 259.784C2145.2 265.345 2139.93 272.661 2132.61 281.734C2123.83 292.269 2118.27 300.025 2115.93 305C2112.13 313.194 2108.03 320.071 2103.64 325.632C2099.54 331.192 2094.86 333.973 2089.59 333.973C2085.79 333.973 2081.98 332.509 2078.18 329.583C2074.08 326.364 2072.03 321.974 2072.03 316.413C2072.03 312.316 2072.91 308.073 2074.67 303.683C2076.71 299 2078.62 294.757 2080.37 290.952C2082.42 287.148 2083.74 284.806 2084.32 283.928C2069.4 286.562 2047.3 291.684 2018.04 299.293C2014.53 300.464 2007.35 302.366 1996.53 305L2049.2 365.579C2094.27 416.794 2123.39 450.157 2136.56 465.668Z" fill="white"/>
<path d="M1792.05 422.208C1796.44 411.087 1798.63 400.405 1798.63 390.163C1798.63 376.7 1794.83 365.726 1787.22 357.239C1775.81 343.777 1756.64 337.338 1729.71 337.923C1724.45 384.163 1720.35 439.914 1717.42 505.176C1734.1 496.397 1749.03 484.837 1762.2 470.496C1775.37 455.864 1785.32 439.768 1792.05 422.208ZM1734.1 303.683C1737.32 303.39 1742.3 303.244 1749.03 303.244C1784.73 303.244 1811.36 312.023 1828.92 329.583C1842.09 342.46 1848.68 358.995 1848.68 379.188C1848.68 389.724 1846.34 402.308 1841.65 416.94C1832 444.45 1815.9 469.18 1793.37 491.129C1770.83 512.785 1745.08 529.32 1716.11 540.734C1714.93 570.585 1714.06 596.631 1713.47 618.873C1712.89 641.407 1712.45 660.137 1712.15 675.063C1711.86 710.767 1710.98 746.617 1709.52 782.614C1709.23 788.76 1704.84 794.174 1696.35 798.856C1687.86 803.539 1679.23 805.88 1670.45 805.88C1660.21 805.88 1655.09 802.076 1655.09 794.466L1655.53 759.348C1655.82 747.934 1656.26 720.425 1656.84 676.819C1657.72 633.213 1659.04 592.534 1660.79 554.781C1652.89 555.659 1645.14 556.098 1637.53 556.098C1631.97 556.098 1627.87 555.22 1625.24 553.464C1622.31 551.708 1620.85 549.367 1620.85 546.441C1620.85 541.173 1624.5 535.612 1631.82 529.759C1638.84 523.906 1646.01 520.98 1653.33 520.98C1657.43 520.98 1660.35 520.833 1662.11 520.541C1665.33 457.62 1670.3 397.186 1677.04 339.24C1674.99 338.07 1673.96 336.168 1673.96 333.534C1673.96 330.022 1675.87 325.925 1679.67 321.242C1679.67 319.486 1679.96 316.56 1680.55 312.462C1681.43 306.317 1686.11 301.049 1694.6 296.659C1703.08 291.976 1711.28 289.635 1719.18 289.635C1724.15 289.635 1727.96 290.66 1730.59 292.708C1733.52 294.757 1734.69 297.83 1734.1 301.927V303.683Z" fill="white"/>
<path d="M1564.6 312.462C1564.89 306.609 1569.13 301.488 1577.33 297.098C1585.52 292.415 1593.72 290.074 1601.91 290.074C1606.59 290.074 1610.4 291.099 1613.32 293.147C1616.25 294.903 1617.57 297.83 1617.28 301.927L1604.55 540.295C1604.25 546.441 1600.01 551.855 1591.81 556.537C1583.62 560.927 1575.43 563.122 1567.23 563.122C1556.4 563.122 1551.14 558.879 1551.43 550.392L1564.6 312.462ZM1563.72 254.517C1563.13 258.614 1564.16 261.687 1566.79 263.735C1569.72 265.784 1573.52 266.808 1578.21 266.808C1586.11 266.808 1594.16 264.613 1602.35 260.223C1610.54 255.833 1615.08 250.566 1615.96 244.42C1618.3 229.787 1619.91 218.813 1620.79 211.496C1621.96 204.18 1617.42 200.522 1607.18 200.522C1599.28 200.522 1591.08 202.716 1582.6 207.106C1574.11 211.496 1569.57 216.471 1568.99 222.032L1563.72 254.517Z" fill="white"/>
<path d="M1379.45 392.357C1390.86 383.285 1400.08 375.237 1407.1 368.213C1414.42 361.19 1419.98 354.166 1423.78 347.142C1407.98 343.045 1384.57 336.314 1353.55 326.949L1351.35 416.063C1360.13 408.746 1365.25 404.356 1366.72 402.893L1379.45 392.357ZM1450.12 453.815C1452.46 449.133 1457.44 445.182 1465.05 441.963C1472.66 438.451 1479.97 436.695 1487 436.695C1496.65 436.695 1501.48 439.768 1501.48 445.913C1501.48 447.669 1501.04 449.718 1500.17 452.059C1488.17 480.154 1479.1 507.371 1472.95 533.71C1471.49 539.563 1467.24 544.977 1460.22 549.953C1457.29 553.757 1452.76 556.976 1446.61 559.61C1440.76 562.244 1434.9 563.561 1429.05 563.561C1424.08 563.561 1419.98 562.537 1416.76 560.488C1413.83 558.44 1412.22 555.22 1411.93 550.831C1410.76 531.808 1404.47 514.395 1393.05 498.591C1381.93 482.788 1367.59 472.545 1350.03 467.863L1347.84 531.515C1347.55 537.076 1342.86 542.197 1333.79 546.88C1325.01 551.562 1316.53 553.903 1308.33 553.903C1303.94 553.903 1300.43 553.172 1297.8 551.708C1295.16 549.953 1293.84 547.319 1293.84 543.807L1295.16 483.227C1291.36 480.593 1289.45 477.52 1289.45 474.008C1289.45 469.911 1291.65 465.96 1296.04 462.156C1297.5 408.892 1299.26 355.775 1301.31 302.805C1301.6 296.659 1305.7 291.391 1313.6 287.001C1321.79 282.319 1329.99 279.978 1338.18 279.978C1344.33 279.978 1348.72 281.441 1351.35 284.367C1383.25 293.147 1416.32 302.805 1450.56 313.34C1455.83 312.17 1459.49 311.584 1461.54 311.584C1466.51 311.584 1470.32 312.755 1472.95 315.096C1475.88 317.145 1477.34 320.364 1477.34 324.754C1477.34 336.753 1473.39 347.874 1465.49 358.117C1457.59 368.067 1446.61 379.188 1432.56 391.479L1423.78 399.381C1409.74 413.136 1396.13 425.281 1382.96 435.817C1406.96 442.548 1426.27 455.864 1440.9 475.764C1442.07 472.838 1445.15 465.521 1450.12 453.815Z" fill="white"/>
<path d="M1289.68 207.545C1296.12 207.838 1299.34 211.057 1299.34 217.203C1299.34 222.178 1297.73 227.885 1294.51 234.323C1291.29 240.762 1288.07 245.883 1284.86 249.688C1278.71 257.297 1271.69 262.418 1263.78 265.052C1255.88 267.686 1246.81 269.003 1236.57 269.003C1233.06 269.003 1227.49 268.71 1219.89 268.125C1210.52 267.54 1203.5 267.393 1198.81 267.686C1196.47 267.686 1193.69 267.686 1190.47 267.686C1187.55 267.686 1185.5 268.271 1184.33 269.442C1183.45 270.613 1182.28 273.247 1180.82 277.344C1179.94 280.27 1179.35 284.075 1179.06 288.757C1179.06 293.44 1179.06 296.805 1179.06 298.854L1175.99 347.581C1175.11 364.555 1174.52 379.481 1174.23 392.357C1173.94 404.942 1173.65 415.477 1173.35 423.964C1173.35 435.378 1173.21 443.865 1172.91 449.425C1175.26 448.84 1176.87 448.547 1177.74 448.547C1184.18 448.547 1187.4 453.522 1187.4 463.473C1187.4 470.497 1186.23 477.959 1183.89 485.861C1181.84 493.763 1179.21 502.542 1175.99 512.2C1174.23 517.175 1170.43 523.906 1164.57 532.393C1159.01 540.588 1152.72 547.758 1145.7 553.903C1138.67 560.049 1132.53 563.122 1127.26 563.122C1120.53 563.122 1115.99 557.854 1113.65 547.319C1111.31 537.076 1110.14 524.784 1110.14 510.444C1110.14 494.348 1111.75 474.008 1114.97 449.425L1118.04 417.818C1122.43 360.751 1127.85 314.218 1134.28 278.222C1132.53 278.807 1127.7 280.417 1119.8 283.051C1112.19 285.392 1105.16 288.172 1098.73 291.391C1092.29 294.61 1087.31 297.976 1083.8 301.488C1080 305.585 1076.63 310.853 1073.7 317.291C1069.9 323.73 1066.53 328.705 1063.61 332.217C1060.97 335.729 1057.02 338.509 1051.76 340.557C1048.54 342.021 1045.32 342.752 1042.1 342.752C1035.95 342.752 1032.88 338.948 1032.88 331.339C1032.88 326.364 1034.05 320.51 1036.39 313.779C1038.73 307.048 1041.22 301.634 1043.85 297.537C1063.46 265.345 1093.6 242.225 1134.28 228.178C1174.96 213.837 1217.98 206.667 1263.35 206.667C1269.78 206.667 1278.56 206.96 1289.68 207.545Z" fill="white"/>
</svg>
