<svg viewBox="0 0 70 70" opacity="0.3" fill="none" xmlns="http://www.w3.org/2000/svg">
<g>
<path class="up" d="M45.1341 17.9443L39.3563 24.8404C38.1431 24.4055 36.8359 24.1687 35.4746 24.1687C33.7151 24.1687 32.0467 24.5642 30.5546 25.2714L24.6172 17.9487L23.262 0.5H46.4889L45.1341 17.9443Z" fill="#ffffff" fill-opacity="0.15" stroke="#ffffff"/>
<path class="left" d="M23.9746 35.6687C23.9746 37.1254 24.2457 38.5199 24.7405 39.8037L17.9487 45.3106L0.5 46.6659V23.4388L17.9443 24.7937L25.0701 30.764C24.3674 32.2522 23.9746 33.9152 23.9746 35.6687Z" fill="#ffffff" fill-opacity="0.15" stroke="#ffffff"/>
<path class="down" d="M24.2644 51.9842L29.633 45.5766C31.3453 46.5882 33.3429 47.1687 35.4746 47.1687C37.1178 47.1687 38.6816 46.8238 40.0966 46.202L44.7813 51.9798L46.1365 69.4285H22.9095L24.2644 51.9842Z" fill="#ffffff" fill-opacity="0.15" stroke="#ffffff"/>
<path class="right" d="M51.9836 45.6632L45.8873 40.5555C46.5847 39.0718 46.9743 37.4151 46.9743 35.6687C46.9743 33.7251 46.4917 31.8928 45.6396 30.2866L51.9792 25.1463L69.4279 23.7911V47.0182L51.9836 45.6632Z" fill="#ffffff" fill-opacity="0.15" stroke="#ffffff"/>
<path class="middle" d="M42.5 35.6687C42.5 39.5487 39.3546 42.6941 35.4746 42.6941C31.5946 42.6941 28.4492 39.5487 28.4492 35.6687C28.4492 31.7887 31.5946 28.6433 35.4746 28.6433C39.3546 28.6433 42.5 31.7887 42.5 35.6687Z" fill="#ffffff" fill-opacity="0.15" stroke="#ffffff"/>
</g>
<defs>
</defs>
</svg>
