<svg width="848" height="1067" viewBox="0 0 848 1067" fill="none" xmlns="http://www.w3.org/2000/svg">
<path d="M846.746 410.362C845.276 494.59 825.613 548.04 781.773 613.038C760.129 645.127 736.762 666.055 698.462 710.506C679.168 732.898 641.431 805.747 624.908 851.311C616.012 875.842 653.986 912.813 620.991 913.389C587.996 913.965 617.622 880.325 606.515 857.633C588.983 821.813 552.085 790.952 529.797 796.865C512.899 801.348 451.556 860.193 430.247 921.589C405.246 993.62 475.088 1067.41 419.273 1066.43C358.034 1065.36 426.849 1002.02 410.366 928.568C396.654 867.465 316.343 797.855 299.832 792.851C267.843 793.41 266.818 849.561 251.325 849.831C235.832 850.102 223.598 806.127 210.522 809.829C192.283 814.993 181.367 818.428 176.337 851.14C171.788 880.724 194.922 925.696 172.487 926.088C150.053 926.479 161.583 865.4 154.587 837.018C147.999 810.295 126.639 696.984 99.2874 648.454C15.9937 500.663 -9.14155 388.056 51.1656 231.484C111.037 76.0421 354.96 19.572 436.364 20.9929C668.288 25.0411 850.794 178.437 846.746 410.362Z" fill="black"/>
<path d="M254.018 876.288C264.79 876.1 297.586 960.668 258.71 959.852C220.919 959.059 243.246 876.476 254.018 876.288Z" fill="black"/>
<path fill-rule="evenodd" clip-rule="evenodd" d="M846.246 410.353C850.288 178.761 668.063 25.5374 436.355 21.4929C395.735 20.7839 314.473 34.5274 235.886 67.8752C157.289 101.227 81.495 154.132 51.6322 231.663C21.5033 309.885 12.728 377.095 21.8715 443.193C31.0163 509.302 58.0902 574.338 99.723 648.208C113.436 672.539 125.627 713.06 135.208 750.79C140.001 769.665 144.145 787.856 147.502 802.997C148.542 807.688 149.506 812.085 150.39 816.118C152.362 825.108 153.937 832.291 155.072 836.898C156.836 844.051 157.427 853.238 157.68 862.951C157.785 866.962 157.832 871.058 157.879 875.145C157.946 880.982 158.013 886.8 158.247 892.322C158.645 901.704 159.525 910.122 161.681 916.159C162.757 919.174 164.138 921.555 165.901 923.168C167.652 924.769 169.801 925.635 172.478 925.588C175.197 925.54 177.166 924.82 178.579 923.591C179.997 922.358 180.912 920.564 181.426 918.263C182.459 913.636 181.832 907.144 180.625 899.64C180.143 896.641 179.567 893.476 178.975 890.219C178.095 885.386 177.179 880.35 176.476 875.346C175.295 866.949 174.694 858.533 175.842 851.064C178.363 834.671 182.372 825.505 188.124 819.799C193.868 814.1 201.289 811.923 210.386 809.348C213.965 808.334 217.374 810.617 220.607 814.221C223.838 817.822 227.069 822.939 230.343 828.122L230.44 828.276C233.76 833.534 237.129 838.853 240.628 842.845C244.144 846.856 247.681 849.395 251.316 849.331C253.086 849.3 254.68 848.476 256.193 846.973C257.713 845.464 259.12 843.3 260.499 840.661C262.269 837.273 263.953 833.184 265.753 828.814C266.764 826.357 267.813 823.81 268.935 821.249C272.034 814.169 275.672 807.026 280.565 801.616C285.472 796.192 291.657 792.494 299.823 792.351L299.902 792.35L299.977 792.373C302.114 793.02 305.226 794.69 309.034 797.195C312.855 799.708 317.414 803.088 322.456 807.187C332.54 815.387 344.572 826.482 356.515 839.331C380.385 865.013 403.968 897.772 410.853 928.458C418.203 961.212 408.663 991.965 401.201 1016.02C400.26 1019.05 399.352 1021.98 398.515 1024.79C396.644 1031.07 395.13 1036.77 394.384 1041.78C393.636 1046.81 393.666 1051.1 394.838 1054.61C396.003 1058.1 398.308 1060.85 402.205 1062.77C406.123 1064.7 411.662 1065.8 419.282 1065.93C426.216 1066.05 431.122 1065.01 434.489 1063.01C437.832 1061.03 439.708 1058.08 440.53 1054.24C441.356 1050.38 441.112 1045.63 440.188 1040.11C439.265 1034.59 437.672 1028.35 435.832 1021.52C435.427 1020.01 435.009 1018.48 434.584 1016.92C427.313 990.188 417.907 955.616 429.774 921.425C440.458 890.644 461.164 860.528 481.3 837.555C491.37 826.066 501.306 816.353 509.788 809.228C514.029 805.665 517.912 802.746 521.27 800.573C524.62 798.407 527.479 796.963 529.668 796.382C535.377 794.868 541.974 795.718 548.9 798.361C555.829 801.006 563.124 805.46 570.253 811.21C584.512 822.709 598.166 839.437 606.964 857.414C609.801 863.21 610.024 869.678 609.32 876.054C608.873 880.1 608.041 884.17 607.255 888.019C606.809 890.205 606.377 892.321 606.038 894.32C605.566 897.102 605.27 899.676 605.339 901.969C605.408 904.261 605.841 906.24 606.801 907.856C608.696 911.047 612.79 913.032 620.982 912.889C625.067 912.818 627.996 912.183 630.036 911.119C632.057 910.066 633.225 908.583 633.794 906.748C634.37 904.891 634.343 902.638 633.892 900.048C633.441 897.462 632.575 894.584 631.514 891.496C630.869 889.62 630.151 887.666 629.413 885.658C627.732 881.084 625.949 876.233 624.699 871.404C622.896 864.446 622.162 857.416 624.438 851.141C632.709 828.331 646.285 798.707 660.202 771.988C674.113 745.282 688.394 721.424 698.083 710.18C711.692 694.386 723.419 681.556 733.849 670.147C738.099 665.498 742.134 661.084 745.992 656.802C759.321 642.008 770.556 628.774 781.359 612.758C825.15 547.833 844.778 494.475 846.246 410.353ZM436.373 20.4931C668.513 24.5452 851.3 178.114 847.246 410.371C845.774 494.704 826.076 548.248 782.188 613.317C771.346 629.391 760.075 642.665 746.735 657.471C742.869 661.762 738.829 666.181 734.576 670.834C724.15 682.239 712.439 695.051 698.84 710.833C689.236 721.98 675.001 745.742 661.089 772.45C647.184 799.145 633.629 828.727 625.378 851.482C623.205 857.472 623.882 864.263 625.667 871.154C626.905 875.933 628.658 880.704 630.331 885.256C631.074 887.277 631.8 889.255 632.459 891.171C633.526 894.273 634.412 897.211 634.877 899.877C635.34 902.538 635.392 904.971 634.749 907.044C634.099 909.14 632.751 910.832 630.498 912.006C628.265 913.17 625.163 913.816 620.999 913.889C612.694 914.034 608.118 912.031 605.941 908.367C604.865 906.555 604.411 904.391 604.339 901.999C604.267 899.608 604.576 896.958 605.052 894.153C605.402 892.084 605.841 889.939 606.291 887.74C607.07 883.928 607.882 879.956 608.326 875.944C609.021 869.648 608.782 863.402 606.066 857.853C597.333 840.009 583.771 823.397 569.625 811.988C562.553 806.285 555.349 801.893 548.543 799.296C541.733 796.696 535.361 795.907 529.925 797.349C527.89 797.888 525.136 799.264 521.813 801.413C518.499 803.557 514.651 806.449 510.431 809.994C501.993 817.081 492.094 826.758 482.052 838.214C461.964 861.133 441.345 891.138 430.719 921.753C418.957 955.641 428.283 989.932 435.563 1016.7C435.983 1018.25 436.396 1019.77 436.798 1021.26C438.637 1028.09 440.242 1034.37 441.174 1039.94C442.105 1045.51 442.373 1050.4 441.508 1054.45C440.637 1058.51 438.618 1061.73 434.999 1063.87C431.405 1066.01 426.284 1067.06 419.264 1066.93C411.575 1066.8 405.868 1065.69 401.763 1063.66C397.637 1061.63 395.143 1058.68 393.89 1054.93C392.645 1051.2 392.638 1046.72 393.395 1041.64C394.152 1036.54 395.684 1030.79 397.557 1024.5C398.397 1021.68 399.307 1018.75 400.248 1015.71C407.712 991.639 417.165 961.152 409.878 928.677C403.052 898.26 379.623 865.662 355.782 840.012C343.87 827.196 331.872 816.132 321.825 807.963C316.801 803.878 312.27 800.521 308.485 798.031C304.734 795.564 301.752 793.973 299.761 793.353C291.972 793.512 286.058 797.035 281.307 802.287C276.527 807.571 272.942 814.588 269.851 821.65C268.752 824.159 267.713 826.681 266.705 829.129C264.89 833.534 263.174 837.699 261.385 841.124C259.989 843.797 258.525 846.067 256.898 847.683C255.265 849.305 253.438 850.295 251.334 850.331C247.222 850.403 243.42 847.546 239.876 843.504C236.315 839.442 232.903 834.05 229.594 828.81L229.532 828.711C226.231 823.485 223.037 818.426 219.863 814.889C216.641 811.298 213.617 809.472 210.658 810.31C201.516 812.898 194.359 815.021 188.828 820.509C183.304 825.989 179.34 834.897 176.831 851.216C175.705 858.539 176.289 866.839 177.466 875.207C178.169 880.205 179.076 885.189 179.951 889.996C180.544 893.256 181.123 896.435 181.613 899.482C182.816 906.968 183.482 913.641 182.401 918.481C181.858 920.914 180.864 922.929 179.235 924.346C177.602 925.766 175.386 926.537 172.496 926.588C169.565 926.639 167.167 925.681 165.226 923.906C163.299 922.142 161.845 919.595 160.739 916.495C158.528 910.303 157.646 901.75 157.248 892.364C157.014 886.837 156.946 880.982 156.879 875.125C156.832 871.04 156.784 866.954 156.681 862.977C156.427 853.266 155.836 844.175 154.101 837.137C152.963 832.517 151.383 825.313 149.409 816.312C148.525 812.283 147.563 807.893 146.525 803.214C143.169 788.076 139.028 769.897 134.239 751.037C124.655 713.298 112.491 672.899 98.8519 648.699C57.191 574.779 30.0504 509.616 20.8809 443.33C11.7102 377.035 20.5208 309.654 50.699 231.304C80.7079 153.393 156.811 100.343 235.495 66.9546C314.188 33.5622 395.589 19.7812 436.373 20.4931ZM255.975 877.607C255.191 877.026 254.54 876.779 254.026 876.788C253.512 876.797 252.9 877.056 252.198 877.635C251.501 878.21 250.757 879.066 249.988 880.184C248.451 882.417 246.86 885.622 245.358 889.494C242.357 897.233 239.748 907.555 238.65 917.896C237.551 928.248 237.974 938.558 240.985 946.306C242.488 950.174 244.627 953.382 247.524 955.648C250.416 957.909 254.094 959.255 258.72 959.352C263.486 959.452 267.105 958.245 269.8 956.097C272.499 953.945 274.319 950.812 275.411 946.976C277.601 939.286 276.831 928.897 274.494 918.414C272.16 907.947 268.279 897.458 264.316 889.606C262.333 885.678 260.339 882.427 258.518 880.173C257.607 879.044 256.751 878.181 255.975 877.607ZM270.423 956.879C267.512 959.199 263.652 960.456 258.699 960.352C253.878 960.251 249.987 958.843 246.908 956.436C243.835 954.032 241.603 950.658 240.053 946.669C236.958 938.703 236.55 928.207 237.656 917.791C238.762 907.364 241.392 896.955 244.426 889.132C245.942 885.223 247.567 881.939 249.165 879.617C249.963 878.457 250.767 877.519 251.562 876.863C252.352 876.211 253.177 875.803 254.009 875.788C254.842 875.774 255.709 876.165 256.57 876.803C257.439 877.446 258.355 878.38 259.296 879.544C261.178 881.875 263.209 885.194 265.209 889.155C269.209 897.081 273.118 907.648 275.47 918.197C277.819 928.731 278.632 939.318 276.373 947.25C275.241 951.225 273.329 954.563 270.423 956.879Z" fill="black"/>
<path d="M828.819 389.395C827.348 473.623 807.686 527.073 763.846 592.07C742.202 624.16 718.835 645.088 680.534 689.539C661.241 711.93 623.504 784.78 606.981 830.344C598.085 854.875 636.058 891.846 603.063 892.422C570.068 892.998 599.694 859.358 588.588 836.666C571.056 800.846 534.158 769.986 511.869 775.898C494.972 780.381 433.629 839.226 412.32 900.622C387.319 972.653 457.16 1046.44 401.346 1045.47C340.107 1044.4 408.922 981.055 392.438 907.601C378.727 846.498 298.416 776.888 281.905 771.884C249.916 772.443 248.891 828.594 233.398 828.864C217.904 829.135 205.671 785.16 192.595 788.862C174.355 794.026 163.439 797.461 158.409 830.173C153.86 859.757 176.994 904.729 154.56 905.121C132.126 905.512 143.656 844.433 136.66 816.05C130.072 789.328 108.711 676.017 81.3602 627.487C-1.9335 479.696 -27.0688 367.089 33.2384 210.517C93.11 55.0751 337.033 -1.39483 418.437 0.0260814C650.361 4.07434 832.867 157.47 828.819 389.395Z" fill="#FFF375"/>
<path d="M236.09 855.321C246.863 855.133 279.658 939.701 240.782 938.885C202.992 938.093 225.318 855.509 236.09 855.321Z" fill="#FFF375"/>
<path fill-rule="evenodd" clip-rule="evenodd" d="M507.469 296.773L564.754 350.193L592.034 320.938L534.749 267.519L588.168 210.233L558.914 182.953L505.495 240.239L448.209 186.819L420.929 216.073L478.215 269.493L424.795 326.779L454.049 354.059L507.469 296.773Z" fill="#FF4D4D"/>
<path fill-rule="evenodd" clip-rule="evenodd" d="M239.136 380.449L291.888 405.048L308.793 368.796L256.041 344.197L280.64 291.444L244.387 274.54L219.788 327.292L167.036 302.693L150.131 338.946L202.884 363.544L178.285 416.297L214.537 433.202L239.136 380.449Z" fill="#FF4D4D"/>
<path d="M663.738 421.275C663.287 432.059 649.766 484.599 633.97 509.213C624.898 523.349 613.061 538.655 598.627 553.617C564.7 588.785 516.425 622.059 455.985 633.808C408.998 642.941 374.23 619.276 336.411 621.408C316.86 622.511 308.751 641.574 266.593 639.564C228.499 637.748 181.812 591.227 179.339 578.507C193.711 589.552 231.754 616.838 273.726 618.612C289.228 619.267 316.595 590.735 336.068 590.819C371.23 590.969 402.341 618.271 445.221 609.936C497.282 599.816 540.303 568.671 573.582 536.577C588.649 522.046 601.719 507.321 612.728 494.265C638.553 463.636 655.939 430.94 663.738 421.275Z" fill="#FF4D4D"/>
<path fill-rule="evenodd" clip-rule="evenodd" d="M663.738 421.275C663.385 421.712 663.012 422.196 662.62 422.726C660.082 426.153 656.725 431.46 652.579 438.014C643.213 452.82 629.819 473.995 612.728 494.265C601.719 507.321 588.649 522.046 573.582 536.577C540.303 568.671 497.282 599.816 445.221 609.936C420.28 614.784 399.321 607.576 379.23 600.666C364.78 595.697 350.778 590.882 336.068 590.819C325.918 590.775 313.624 598.505 301.984 605.824C291.29 612.548 281.148 618.925 273.726 618.612C232.982 616.89 195.94 591.126 180.661 579.517C180.201 579.167 179.76 578.83 179.339 578.507C179.435 579.001 179.598 579.546 179.824 580.137C185.425 594.773 229.978 637.818 266.593 639.564C292.684 640.808 305.733 633.98 316.525 628.334C323.17 624.858 328.96 621.829 336.411 621.408C352.521 620.5 368.077 624.272 384.26 628.197C406.067 633.486 429.013 639.05 455.985 633.808C516.425 622.059 564.7 588.785 598.627 553.617C613.061 538.655 624.898 523.349 633.97 509.213C649.009 485.779 661.986 437.032 663.584 423.106C663.665 422.404 663.716 421.792 663.738 421.275ZM662.345 424.819C660.814 426.999 659.016 429.754 656.952 432.988C655.852 434.712 654.676 436.569 653.429 438.542C651.137 442.164 648.601 446.174 645.832 450.452C637.273 463.677 626.445 479.548 613.492 494.91C602.472 507.98 589.377 522.734 574.276 537.297C540.934 569.452 497.745 600.745 445.412 610.917C423.71 615.136 405.008 610.324 387.436 604.509C384.547 603.553 381.693 602.571 378.863 601.599C364.412 596.631 350.594 591.881 336.064 591.819C331.42 591.799 326.222 593.49 320.723 596.12C315.236 598.745 309.551 602.253 303.94 605.776C303.462 606.076 302.985 606.376 302.509 606.675C297.409 609.882 292.387 613.04 287.724 615.424C282.651 618.017 277.835 619.786 273.684 619.611C233.83 617.926 197.57 593.456 181.477 581.387C181.902 582.23 182.436 583.161 183.08 584.171C184.634 586.613 186.778 589.441 189.417 592.506C194.693 598.634 201.906 605.656 210.234 612.345C226.932 625.756 247.919 637.673 266.64 638.565C287.534 639.561 299.937 635.342 309.548 630.751C311.848 629.653 313.989 628.532 316.065 627.446L316.381 627.281C318.549 626.147 320.654 625.052 322.766 624.084C326.999 622.143 331.298 620.695 336.355 620.41C352.625 619.492 368.345 623.306 384.522 627.231C387.328 627.912 390.148 628.596 392.987 629.259C412.246 633.759 432.515 637.351 455.794 632.826C515.983 621.126 564.083 587.984 597.907 552.923C612.295 538.008 624.092 522.754 633.129 508.673C640.949 496.486 648.247 477.307 653.653 459.763C656.352 451.005 658.572 442.68 660.144 435.878C661.177 431.408 661.923 427.626 662.345 424.819Z" fill="#FF4D4D"/>
<path fill-rule="evenodd" clip-rule="evenodd" d="M494.587 275.069L551.873 328.489L579.153 299.235L521.867 245.815L575.287 188.529L546.033 161.249L492.613 218.535L435.327 165.115L408.047 194.369L465.333 247.789L411.913 305.075L441.167 332.354L494.587 275.069Z" fill="#9DFFFA"/>
<path fill-rule="evenodd" clip-rule="evenodd" d="M224.889 365.683L277.642 390.282L294.546 354.03L241.794 329.431L266.393 276.678L230.14 259.774L205.542 312.526L152.789 287.927L135.884 324.18L188.637 348.779L164.038 401.531L200.29 418.436L224.889 365.683Z" fill="#9DFFFA"/>
<path d="M649.543 405.51C649.093 416.294 635.572 468.835 619.776 493.448C610.704 507.585 598.867 522.89 584.432 537.852C550.505 573.021 502.23 606.295 441.79 618.043C394.804 627.176 360.035 603.511 322.217 605.644C302.665 606.747 294.556 625.809 252.398 623.799C214.304 621.983 167.618 575.463 165.145 562.743C179.516 573.787 217.559 601.073 259.531 602.847C275.034 603.502 302.4 574.971 321.874 575.054C357.035 575.205 388.146 602.507 431.027 594.171C483.088 584.052 526.108 552.907 559.388 520.812C574.455 506.282 587.525 491.557 598.534 478.501C624.359 447.871 641.744 415.176 649.543 405.51Z" fill="#9DFFFA"/>
<path fill-rule="evenodd" clip-rule="evenodd" d="M649.543 405.51C649.19 405.948 648.818 406.432 648.426 406.961C645.888 410.389 642.531 415.695 638.385 422.25C629.019 437.056 615.624 458.231 598.534 478.501C587.525 491.557 574.455 506.282 559.388 520.812C526.108 552.907 483.088 584.052 431.027 594.171C406.086 599.019 385.126 591.811 365.036 584.902C350.585 579.932 336.584 575.117 321.874 575.054C311.724 575.011 299.43 582.741 287.789 590.06C277.096 596.784 266.954 603.161 259.531 602.847C218.787 601.125 181.746 575.362 166.467 563.753C166.006 563.403 165.565 563.066 165.145 562.743C165.241 563.237 165.404 563.782 165.63 564.373C171.23 579.008 215.784 622.054 252.398 623.799C278.489 625.043 291.539 618.216 302.33 612.57C308.976 609.093 314.765 606.064 322.217 605.644C338.327 604.735 353.883 608.508 370.065 612.433C391.873 617.721 414.819 623.286 441.79 618.043C502.23 606.295 550.505 573.021 584.432 537.852C598.867 522.89 610.704 507.585 619.776 493.448C634.815 470.014 647.791 421.268 649.39 407.341C649.47 406.64 649.522 406.027 649.543 405.51ZM648.151 409.055C646.619 411.235 644.822 413.99 642.758 417.224C641.657 418.947 640.482 420.805 639.234 422.777C636.943 426.4 634.406 430.41 631.638 434.687C623.079 447.913 612.25 463.784 599.298 479.145C588.278 492.216 575.183 506.969 560.082 521.532C526.739 553.687 483.55 584.981 431.218 595.153C409.516 599.371 390.814 594.56 373.241 588.744C370.353 587.788 367.498 586.807 364.668 585.834C350.217 580.866 336.4 576.116 321.869 576.054C317.226 576.034 312.027 577.726 306.529 580.356C301.042 582.98 295.357 586.489 289.745 590.012C289.268 590.312 288.791 590.612 288.314 590.911C283.215 594.118 278.193 597.276 273.529 599.659C268.456 602.252 263.641 604.022 259.489 603.846C219.636 602.162 183.375 577.692 167.283 565.622C167.708 566.465 168.241 567.396 168.885 568.407C170.44 570.848 172.584 573.677 175.222 576.741C180.499 582.869 187.712 589.892 196.04 596.581C212.737 609.991 233.724 621.908 252.446 622.801C273.34 623.797 285.743 619.577 295.354 614.987C297.653 613.888 299.795 612.768 301.871 611.682L302.186 611.517C304.355 610.383 306.46 609.287 308.571 608.32C312.805 606.379 317.104 604.931 322.161 604.645C338.431 603.728 354.151 607.542 370.327 611.466C373.134 612.147 375.954 612.831 378.793 613.495C398.051 617.995 418.32 621.586 441.6 617.061C501.788 605.362 549.888 572.22 583.713 537.158C598.101 522.243 609.897 506.99 618.934 492.908C626.755 480.722 634.052 461.542 639.458 443.999C642.157 435.24 644.377 426.916 645.949 420.113C646.982 415.643 647.728 411.861 648.151 409.055Z" fill="#9DFFFA"/>
<path fill-rule="evenodd" clip-rule="evenodd" d="M531.435 254.327L588.72 307.747L561.44 337.001L504.155 283.581L450.735 340.867L421.481 313.587L474.9 256.301L417.615 202.882L444.895 173.627L502.18 227.047L555.6 169.761L584.854 197.041L531.435 254.327Z" fill="black"/>
<path fill-rule="evenodd" clip-rule="evenodd" d="M251.571 333.949L304.323 358.548L287.419 394.8L234.666 370.201L210.067 422.954L173.815 406.049L198.414 353.297L145.661 328.697L162.566 292.445L215.319 317.044L239.917 264.292L276.17 281.196L251.571 333.949Z" fill="black"/>
<path d="M659.268 411.027C658.817 421.811 645.296 474.351 629.5 498.965C620.428 513.101 608.591 528.406 594.157 543.369C560.23 578.537 511.955 611.811 451.515 623.56C404.528 632.693 369.76 609.027 331.941 611.16C312.39 612.263 304.281 631.326 262.123 629.316C224.029 627.5 177.342 580.979 174.87 568.259C189.241 579.304 227.284 606.59 269.256 608.363C284.759 609.019 312.125 580.487 331.598 580.57C366.76 580.721 397.871 608.023 440.752 599.688C492.813 589.568 535.833 558.423 569.112 526.329C584.179 511.799 597.25 497.074 608.258 484.017C634.084 453.388 651.469 420.692 659.268 411.027Z" fill="black"/>
</svg>
